<svg xmlns="http://www.w3.org/2000/svg" viewBox="0 0 397.02 248.4"><defs><style>.cls-1{fill:#1d1d1b;}</style></defs><g id="Capa_2" data-name="Capa 2"><g id="Capa_1-2" data-name="Capa 1"><path class="cls-1" d="M3.9,208.92h7.27c8.84,0,13.64,5.25,13.64,14.58S20,238.35,11.35,238.35H3.9Zm7,26.34c6.69,0,10-4.31,10-11.76S17.59,212,10.9,212H7.67v23.24Z" transform="translate(-3.9)"/><path class="cls-1" d="M30,227.41A11,11,0,0,1,41.09,216c6.28,0,10,4.08,10,10.23a15,15,0,0,1-.18,2.24H32.43v-2.87H48.67l-.94,1c0-5.16-2.56-7.71-6.55-7.71s-7.54,3-7.54,8.48c0,5.65,3.68,8.52,8.53,8.52a12,12,0,0,0,6.64-2.06l1.34,2.42a15,15,0,0,1-8.43,2.6C35.17,238.89,30,234.67,30,227.41Z" transform="translate(-3.9)"/><path class="cls-1" d="M57,235.48,58.72,233a15.51,15.51,0,0,0,9.46,3c3.68,0,5.48-1.52,5.48-3.36,0-1.66-.86-2.83-6.78-4-5.7-1.16-8.52-3.09-8.52-6.37,0-3.5,3.09-6.19,9.06-6.19a16.35,16.35,0,0,1,8.79,2.78l-1.79,2.38a12.87,12.87,0,0,0-7.31-2.29c-3.68,0-5,1.48-5,3.14,0,1.89,1.89,2.69,6.37,3.64,7.22,1.57,9,3.36,9,6.72,0,3.55-3.45,6.51-9.69,6.51A19.16,19.16,0,0,1,57,235.48Z" transform="translate(-3.9)"/><path class="cls-1" d="M94.87,219.55H84.78v-3H98.6v21.8H94.87ZM93.39,209.1a3,3,0,0,1,5.92,0,3,3,0,0,1-5.92,0Z" transform="translate(-3.9)"/><path class="cls-1" d="M110.88,242.34c0-1.75,1.26-3.5,3.59-4.84v-.18a4,4,0,0,1-2.24-3.59,5.29,5.29,0,0,1,2.6-4.08v-.18a7,7,0,0,1-2.69-5.65c0-4.76,4-7.81,8.57-7.81a8.85,8.85,0,0,1,3.23.54h9v3H127.3a6.6,6.6,0,0,1,1.84,4.4c0,4.67-3.72,7.49-8.43,7.49a9.4,9.4,0,0,1-3.68-.81,3,3,0,0,0-1.7,2.52c0,1.7,1.65,2.51,4.53,2.51h4.89c5.6,0,8.29,1.43,8.29,5.11,0,4.09-4.71,7.63-12.11,7.63C114.56,248.4,110.88,246.2,110.88,242.34Zm18.53-1c0-2.07-1.66-2.65-5-2.65h-4.26a12.28,12.28,0,0,1-3.32-.36c-2.06,1.12-2.78,2.38-2.78,3.63,0,2.29,2.47,3.73,7.13,3.73C126.27,245.71,129.41,243.6,129.41,241.36Zm-3.68-17.54a5,5,0,1,0-5,5.16A4.93,4.93,0,0,0,125.73,223.82Z" transform="translate(-3.9)"/><path class="cls-1" d="M138.74,216.55h3l.31,3.68h.18c2.29-2.38,4.8-4.22,8.21-4.22,5.16,0,7.54,3.05,7.54,8.79v13.55h-3.72v-13c0-4.13-1.44-6.06-5-6.06-2.61,0-4.36,1.3-6.87,3.9v15.21h-3.72Z" transform="translate(-3.9)"/><path class="cls-1" d="M199.7,208.92H204l9.91,29.43h-4l-5.07-16.42c-1-3.27-2-6.5-2.91-9.91h-.18c-.94,3.41-1.89,6.64-2.92,9.91l-5.16,16.42h-3.85ZM195,226.37h13.51v3H195Z" transform="translate(-3.9)"/><path class="cls-1" d="M219.48,216.55h3.05l.31,3.68H223c2.29-2.38,4.8-4.22,8.21-4.22,5.16,0,7.54,3.05,7.54,8.79v13.55h-3.72v-13c0-4.13-1.44-6.06-5-6.06-2.61,0-4.36,1.3-6.87,3.9v15.21h-3.72Z" transform="translate(-3.9)"/><path class="cls-1" d="M244.91,227.49c0-7.08,4.71-11.48,9.87-11.48a9.36,9.36,0,0,1,6.55,2.78h.09l-.18-4v-8.39H265v31.94h-3l-.32-2.87h-.13a10.49,10.49,0,0,1-7.14,3.41C248.68,238.89,244.91,234.76,244.91,227.49Zm16.33,5V221.66a8.07,8.07,0,0,0-5.7-2.51c-3.76,0-6.81,3.32-6.81,8.3,0,5.2,2.42,8.3,6.41,8.3C257.29,235.75,259.31,234.67,261.24,232.52Z" transform="translate(-3.9)"/><path class="cls-1" d="M299.28,208.92h4.57L308,221.48l1.44,4.76h.18l1.39-4.76,4.17-12.56h4.57v29.43h-3.58V223.64c0-2.87.44-7.9.62-10.41h-.13L315,219l-4.22,11.58h-2.69L303.94,219l-1.7-5.74h-.09c.27,2.51.63,7.54.63,10.41v14.71h-3.5Z" transform="translate(-3.9)"/><path class="cls-1" d="M325.65,227.49c0-7.31,5-11.48,10.77-11.48s10.77,4.17,10.77,11.48-5,11.4-10.77,11.4S325.65,234.72,325.65,227.49Zm17.72,0c0-5-2.78-8.38-6.95-8.38s-6.95,3.36-6.95,8.38,2.78,8.3,6.95,8.3S343.37,232.47,343.37,227.49Z" transform="translate(-3.9)"/><path class="cls-1" d="M356.38,216.55h3.09l.36,5.16h.09a11.49,11.49,0,0,1,9.74-5.7,9.06,9.06,0,0,1,4.3.9l-.85,3.18a11,11,0,0,0-4-.71c-3.27,0-6.37,1.65-9,6.23v12.74h-3.72Z" transform="translate(-3.9)"/><path class="cls-1" d="M379.84,227.41A11,11,0,0,1,391,216c6.28,0,10,4.08,10,10.23a15,15,0,0,1-.18,2.24H382.3v-2.87h16.24l-.94,1c0-5.16-2.55-7.71-6.55-7.71s-7.53,3-7.53,8.48c0,5.65,3.67,8.52,8.52,8.52a11.92,11.92,0,0,0,6.64-2.06l1.35,2.42a15,15,0,0,1-8.44,2.6C385,238.89,379.84,234.67,379.84,227.41Z" transform="translate(-3.9)"/><path class="cls-1" d="M186.82,53.52c-5.31,0-8.42,4.73-8.42,11a32.09,32.09,0,0,0,3.45,13.28c6.45-4.65,11.89-9.29,11.89-15.93C193.74,57.44,191.89,53.52,186.82,53.52Zm0,0c-5.31,0-8.42,4.73-8.42,11a32.09,32.09,0,0,0,3.45,13.28c6.45-4.65,11.89-9.29,11.89-15.93C193.74,57.44,191.89,53.52,186.82,53.52ZM335.7,0H314.55a21.68,21.68,0,0,0-18.13,9.72q-22.95,35-28.86,66.39-5.25-32.53-31.19-68.93A17.14,17.14,0,0,0,222.43,0H197a12.49,12.49,0,0,0-12.32,10.45Q172.83,0,156.25,0H53.89A21,21,0,0,0,39.33,5.46a17.21,17.21,0,0,0,0,26,21.33,21.33,0,0,0,14.56,5.32,20.86,20.86,0,0,1,14.39,5.45,16.85,16.85,0,0,1,6.08,12.92v73.51a17,17,0,0,1-6.08,13.07A21.16,21.16,0,0,1,53.89,147a21,21,0,0,0-14.56,5.45,17.22,17.22,0,0,0,0,26,21.37,21.37,0,0,0,14.56,5.31H156.25q17,0,28.79-10.62c.61-.54,1.19-1.09,1.75-1.64a21.68,21.68,0,0,0,41.1-9.65V48.21a155.79,155.79,0,0,1,19.82,61.68A19.49,19.49,0,0,0,267,127.5h.08a19.49,19.49,0,0,0,19.33-17.62,153.41,153.41,0,0,1,19.83-61.67V161.4a22.12,22.12,0,0,0,22.14,22.14,21.22,21.22,0,0,0,21.22-21.22V13.93A13.93,13.93,0,0,0,335.7,0ZM156.25,128.64a17,17,0,0,1-6.08,13.07A21.16,21.16,0,0,1,135.78,147H118.3a3,3,0,0,1-3-3V39.76a3,3,0,0,1,3-3h17.48a20.86,20.86,0,0,1,14.39,5.45,16.85,16.85,0,0,1,6.08,12.92Zm63.91-3.48a52.68,52.68,0,0,1-15.87-8.57c-5.52,5.2-12.13,8.57-20.59,8.57-13.38,0-22.61-8.77-22.61-21,0-9.9,6.73-16.18,14.07-21.61-3.17-6.27-5.07-12.43-5.07-17.84,0-10.15,6.69-18,16.61-18,9.46,0,14.77,6.12,14.77,15,0,9.68-8.25,16-16.27,22.16A95.91,95.91,0,0,0,203.62,105a64.84,64.84,0,0,0,9.5-22H222A85.44,85.44,0,0,1,209.86,110a44.79,44.79,0,0,0,12.95,7.18ZM178.83,89c-4.83,4.22-8.51,8.76-8.51,14.59,0,8.43,6.46,14,14.54,14,4.74,0,9.26-2.4,13.19-6.05A108.27,108.27,0,0,1,178.83,89Zm14.91-27.16c0-4.39-1.85-8.31-6.92-8.31-5.31,0-8.42,4.73-8.42,11a32.09,32.09,0,0,0,3.45,13.28C188.3,73.11,193.74,68.47,193.74,61.83Z" transform="translate(-3.9)"/></g></g></svg>