<svg xmlns="http://www.w3.org/2000/svg" viewBox="0 0 316.22 183.77"><defs><style>.cls-1{fill:#1d1d1b;}</style></defs><g id="Capa_2" data-name="Capa 2"><g id="Capa_1-2" data-name="Capa 1"><path class="cls-1" d="M153.41,53.52c-5.31,0-8.42,4.73-8.42,11a32.09,32.09,0,0,0,3.45,13.28c6.45-4.65,11.89-9.29,11.89-15.93C160.33,57.44,158.48,53.52,153.41,53.52Zm0,0c-5.31,0-8.42,4.73-8.42,11a32.09,32.09,0,0,0,3.45,13.28c6.45-4.65,11.89-9.29,11.89-15.93C160.33,57.44,158.48,53.52,153.41,53.52ZM302.29,0H281.14A21.68,21.68,0,0,0,263,9.72q-22.95,35-28.86,66.39Q228.9,43.58,203,7.18A17.14,17.14,0,0,0,189,0H163.59a12.49,12.49,0,0,0-12.32,10.45Q139.42,0,122.84,0H20.48A21,21,0,0,0,5.92,5.46a17.21,17.21,0,0,0,0,26,21.33,21.33,0,0,0,14.56,5.32,20.86,20.86,0,0,1,14.39,5.45A16.85,16.85,0,0,1,41,55.13v73.51a17,17,0,0,1-6.08,13.07A21.16,21.16,0,0,1,20.48,147a21,21,0,0,0-14.56,5.45,17.22,17.22,0,0,0,0,26,21.37,21.37,0,0,0,14.56,5.31H122.84q16.95,0,28.79-10.62c.61-.54,1.19-1.09,1.75-1.64a21.68,21.68,0,0,0,41.1-9.65V48.21a155.79,155.79,0,0,1,19.82,61.68,19.49,19.49,0,0,0,19.32,17.61h.08A19.49,19.49,0,0,0,253,109.88a153.41,153.41,0,0,1,19.83-61.67V161.4A22.12,22.12,0,0,0,295,183.54a21.22,21.22,0,0,0,21.22-21.22V13.93A13.93,13.93,0,0,0,302.29,0ZM122.84,128.64a17,17,0,0,1-6.08,13.07A21.16,21.16,0,0,1,102.37,147H84.89a3,3,0,0,1-3-3V39.76a3,3,0,0,1,3-3h17.48a20.86,20.86,0,0,1,14.39,5.45,16.85,16.85,0,0,1,6.08,12.92Zm63.91-3.48a52.68,52.68,0,0,1-15.87-8.57c-5.52,5.2-12.13,8.57-20.59,8.57-13.38,0-22.61-8.77-22.61-21,0-9.9,6.73-16.18,14.07-21.61-3.17-6.27-5.07-12.43-5.07-17.84,0-10.15,6.69-18,16.61-18,9.46,0,14.77,6.12,14.77,15,0,9.68-8.25,16-16.27,22.16A95.91,95.91,0,0,0,170.21,105a64.84,64.84,0,0,0,9.5-22h8.88A85.44,85.44,0,0,1,176.45,110a44.79,44.79,0,0,0,13,7.18ZM145.42,89c-4.83,4.22-8.51,8.76-8.51,14.59,0,8.43,6.46,14,14.54,14,4.74,0,9.26-2.4,13.19-6.05A108.27,108.27,0,0,1,145.42,89Zm14.91-27.16c0-4.39-1.85-8.31-6.92-8.31-5.31,0-8.42,4.73-8.42,11a32.09,32.09,0,0,0,3.45,13.28C154.89,73.11,160.33,68.47,160.33,61.83Z"/></g></g></svg>